<svg xmlns="http://www.w3.org/2000/svg" viewBox="0 0 512 512" width="100%" height="100%">
  <!-- Fundo Azul Harmonioso SaaS (HSL Tailored Blue) -->
  <rect width="512" height="512" rx="128" fill="#2563EB"/>
  
  <!-- Símbolo Vetorial 'GO' Centralizado e Otimizado -->
  <g transform="translate(48, 64)" fill="#FFFFFF">
    <!-- Letra 'G' Estilizada em Alta Definição -->
    <path d="M198 135c-8 0-16 2-23 6-27 15-45 44-45 77 0 48 39 87 87 87 23 0 44-9 59-24 13-13 21-30 21-49h-80v-40h121c1 4 2 10 2 15 0 32-11 61-31 82-24 25-58 39-95 39-72 0-131-59-131-131s59-131 131-131c39 0 74 15 99 41l-29 29c-17-19-42-31-70-31z"/>
    
    <!-- Círculo que envolve a seta do 'O' -->
    <path d="M312 218c0-48 39-87 87-87s87 39 87 87-39 87-87 87-87-39-87-87zm174 0c0-96-78-174-174-174s-174 78-174 174 78 174 174 174 174-78 174-174z"/>
    
    <!-- Seta Direcional (Bússola/Navegação) com inclinação precisa dentro do 'O' -->
    <path d="M410 178l-43 65c-2 3-1 7 2 9 1 1 3 1 4 1l18-5 13 13c2 2 5 3 7 1 3-2 3-6 1-9l-2-65z" fill="#2563EB"/>
    
    <!-- Símbolo de Radar/Bússola arqueado sobre o 'O' -->
    <path d="M421.3 48.6c18.5 7.6 35.2 19 49.3 33.3 3.1 3.1 8.2 3.1 11.3 0 3.1-3.1 3.1-8.2 0-11.3-15.6-15.8-34.1-28.5-54.6-36.9-4.1-1.7-8.8 0.3-10.5 4.4-1.7 4.1 0.3 8.8 4.5 10.5z"/>
  </g>

  <!-- Tipografia 'Itaim' Vetorizada e Alinhada na Parte Inferior -->
  <text x="256" y="440" font-family="'Outfit', 'Inter', sans-serif" font-size="64" font-weight="900" fill="#FFFFFF" text-anchor="middle" letter-spacing="2">Itaim</text>
</svg>
